<svg xmlns="http://www.w3.org/2000/svg" width="320" height="64" viewBox="0 0 320 64"><g><g><g><path fill="#262121" d="M51.759 37.554a73 73 0 0 1-7.21 5c-1.31.77-4 2.28-3.28-.53a30.498 30.498 0 0 1 1.79-4.37c.49-1.13 2-3.59.06-4.05-3.29-.78-14.58 6.11-16.87 7.57l-3.78 2.38c-2.24 1.44-5.21 3.44-7.32 4.99-.38.27-3.22 2.5-3.47 2.61l-1.1-1.16-.28-.28c-.11-.12-.15-.19-.26-.32a30.728 30.728 0 0 1-5.42-9.23 27.557 27.557 0 0 1-1-15.7 31.358 31.358 0 0 1 10.65-16.469 27.64 27.64 0 0 1 20.73-6 31.06 31.06 0 0 1 13.2 4.79 30.67 30.67 0 0 1 9.09 9c2.34 3.58 4.46 8.92 4.56 13.42zm22.84-15.329l-2-2.74-.34.31-.27.3-.6.61-2.45 2.29c-.32.34-.87.75-1.24 1.09-.87.79-1.64 1.46-2.51 2.24-.13.11-.23.16-.36.28l-2.12 1.84c-.14-.62-.17-1.49-.26-2.15a30.6 30.6 0 0 0-10.36-18.46 30.09 30.09 0 0 0-4.15-3c-8.78-5.27-20.32-6.84-30.38-1.63a31.49 31.49 0 0 0-5.79 3.85c-.45.38-.84.75-1.28 1.13-.67.57-.91.94-1.21 1.19a25.097 25.097 0 0 0-1.74 1.87 31.62 31.62 0 0 0-6.85 13.49 33 33 0 0 0 4 23.4 33.639 33.639 0 0 0 3 4.19l1.09 1.24-5.58 5a19.388 19.388 0 0 0-1.79 1.73l1.92-1.67c.18-.16.29-.29.48-.44l5.19-4.38a33.1 33.1 0 0 0 2.74 2.53 30.53 30.53 0 0 0 21 7.66 43.66 43.66 0 0 0 8.32-1.13c1.18-.27 6.73-1.75 7.32-2.21a24.18 24.18 0 0 1-2.48-2.24l-1.81-1.81c-.18-.17-.35-.3-.52-.47-.57.27-1.14.64-1.77 1-7.78 3.82-16.22 3.25-23.7-1a28.17 28.17 0 0 1-4.77-3.37l-1.33-1.31c2.92-2.52 11.11-7.72 14.35-9.57 1.55-.88 14.94-8.39 16.57-7.1.51.64-3.63 5.84-3.07 8.88.77 4.2 10-2.48 11.85-3.7 1.29-.86 10.09-7.58 10.22-7.89a22.34 22.34 0 0 1-.42 4.37 33.82 33.82 0 0 1-3.9 10.69 22.801 22.801 0 0 1-2 2.91 25.122 25.122 0 0 1-2.34 2.55 26 26 0 0 1-4 3.3c-.26.18-3.09 2.23-3.35 2.52a61.682 61.682 0 0 0 7-5.21c.23-.22.46-.36.68-.59l1.23-1.25a26.61 26.61 0 0 0 3.32-4.37 33.06 33.06 0 0 0 4.61-15.59l1.45-1.15 1.46-1.16a82.06 82.06 0 0 1 9.12-6.64l-.11-.13a.27.27 0 0 0-.07-.1z"/></g><g><path fill="#262121" d="M85.55 28.17c.34.08.73.15 1.15.21.448.057.899.087 1.35.09.431-.005.862-.035 1.29-.09a7.91 7.91 0 0 0 1.25-.24 5.94 5.94 0 0 0 1.14-.42 3.81 3.81 0 0 0 .91-.61 2.62 2.62 0 0 0 .62-.81 2.21 2.21 0 0 0 .23-1 2.46 2.46 0 0 0-.28-1.19 2.6 2.6 0 0 0-.75-.8 3.67 3.67 0 0 0-1-.48 6.87 6.87 0 0 0-1.16-.25v-.11a5 5 0 0 0 1.4-.56 3.3 3.3 0 0 0 .85-.73 2.38 2.38 0 0 0 .39-.78c.07-.22.107-.449.11-.68a1.82 1.82 0 0 0-.31-1 2.12 2.12 0 0 0-.86-.75 4.5 4.5 0 0 0-1.33-.47 9 9 0 0 0-1.71-.15c-.44 0-.87 0-1.27.06l-1.17.13c-.36.05-.69.12-1 .18l-.78.17v3h1.13l.37-1.43a.31.31 0 0 1 .15-.18.77.77 0 0 1 .19-.14c.11-.07.24-.13.38-.2l.45-.15c.16 0 .33-.08.52-.11.2-.01.4-.01.6 0 .313-.009.626.025.93.1.215.059.416.161.59.3.144.124.254.283.32.46a2 2 0 0 1 .08.57 1.57 1.57 0 0 1-.57 1.33 2.76 2.76 0 0 1-1.77.46h-.86v1.61h1a4.52 4.52 0 0 1 1.25.13c.286.062.557.177.8.34.197.132.35.32.44.54a1.82 1.82 0 0 1-.03 1.42 1.46 1.46 0 0 1-.48.6 2.16 2.16 0 0 1-.79.39 4.59 4.59 0 0 1-2.25 0 9.761 9.761 0 0 1-1-.38 7.22 7.22 0 0 1-.88-.42c-.27-.15-.47-.28-.63-.36H84v2l.62.19c.26.04.57.13.93.21z"/></g><g><path fill="#262121" d="M105.031 27.181a2.47 2.47 0 0 1-1.31-.33 2.43 2.43 0 0 1-.89-.91 4.17 4.17 0 0 1-.52-1.43 9.22 9.22 0 0 1-.18-1.9 7.85 7.85 0 0 1 .15-1.58 4 4 0 0 1 .47-1.29 2.53 2.53 0 0 1 .83-.86 2.19 2.19 0 0 1 1.22-.31 2.48 2.48 0 0 1 1.28.31c.379.217.696.526.92.9.26.435.439.912.53 1.41.119.63.172 1.27.16 1.91a7.18 7.18 0 0 1-.16 1.67 4.08 4.08 0 0 1-.49 1.29 2.47 2.47 0 0 1-.84.83 2.33 2.33 0 0 1-1.17.29zm4.13-.44c.299-.35.544-.74.73-1.16a4.67 4.67 0 0 0 .42-1.31 6.92 6.92 0 0 0 .15-1.42 7.61 7.61 0 0 0-.32-2.23 4.8 4.8 0 0 0-1-1.77 4.39 4.39 0 0 0-1.72-1.17 6.56 6.56 0 0 0-2.46-.43 6.16 6.16 0 0 0-2.33.41 5 5 0 0 0-1.76 1.16 5.16 5.16 0 0 0-1.09 1.77 6.27 6.27 0 0 0-.37 2.26 7 7 0 0 0 .36 2.36 4.65 4.65 0 0 0 1.04 1.79 4.34 4.34 0 0 0 1.73 1.11 6.73 6.73 0 0 0 2.37.39c.6.01 1.2-.06 1.78-.21a5.41 5.41 0 0 0 1.4-.64 4.42 4.42 0 0 0 1.07-.91z"/></g><g><path fill="#262121" d="M116.6 28.37h.32A1.89 1.89 0 0 0 118 28a3.93 3.93 0 0 0 1-1 8.09 8.09 0 0 0 .85-1.53 12.11 12.11 0 0 0 .67-1.93c.197-.75.347-1.511.45-2.28.119-.825.185-1.657.2-2.49h2.67v7.91a.31.31 0 0 1-.09.23 1.22 1.22 0 0 1-.19.13l-1.19.48v.69h5.49v-.69l-1.19-.48a1.16 1.16 0 0 1-.2-.13.27.27 0 0 1-.08-.23V19a.25.25 0 0 1 .08-.21.55.55 0 0 1 .2-.11l1.19-.49v-.69h-9.72v.68l1.21.49a.54.54 0 0 1 .19.16.73.73 0 0 1 .07.39c0 .47 0 1-.09 1.48a14.681 14.681 0 0 1-.26 1.57c-.11.5-.24 1-.39 1.46a8.85 8.85 0 0 1-.48 1.25 3.47 3.47 0 0 1-.56.85.82.82 0 0 1-.6.32H116.28a2.489 2.489 0 0 0-.37 0h-.5v2.22c.123.007.247.007.37 0h.41z"/></g><g><path fill="#262121" d="M141.231 26.061a2.47 2.47 0 0 1-.84.83 2.33 2.33 0 0 1-1.17.29 2.47 2.47 0 0 1-1.31-.33 2.43 2.43 0 0 1-.89-.91 4.17 4.17 0 0 1-.52-1.43 9.22 9.22 0 0 1-.18-1.9 7.85 7.85 0 0 1 .15-1.58 4 4 0 0 1 .47-1.29 2.53 2.53 0 0 1 .83-.86 2.19 2.19 0 0 1 1.22-.31 2.42 2.42 0 0 1 2.19 1.21c.267.432.45.91.54 1.41.119.63.172 1.27.16 1.91a7.18 7.18 0 0 1-.16 1.67 4.34 4.34 0 0 1-.49 1.29zm.34-8.38a6.47 6.47 0 0 0-2.45-.43 6.13 6.13 0 0 0-2.33.41 5 5 0 0 0-1.79 1.16 5.16 5.16 0 0 0-1.09 1.77 6.27 6.27 0 0 0-.37 2.26 7 7 0 0 0 .36 2.36 4.65 4.65 0 0 0 1.1 1.79 4.34 4.34 0 0 0 1.73 1.11 6.73 6.73 0 0 0 2.37.39c.6.011 1.2-.06 1.78-.21a5.41 5.41 0 0 0 1.4-.62 4.42 4.42 0 0 0 1.07-.91c.299-.35.544-.74.73-1.16a4.67 4.67 0 0 0 .42-1.31 6.92 6.92 0 0 0 .15-1.42 7.29 7.29 0 0 0-.33-2.23 4.65 4.65 0 0 0-1.02-1.79 4.35 4.35 0 0 0-1.73-1.17z"/></g><g><path fill="#262121" d="M154 26.94a1.16 1.16 0 0 1-.2.13l-1.27.48v.69h5.62v-.69l-1.26-.48a.88.88 0 0 1-.19-.12.33.33 0 0 1-.08-.24v-7.86h2.16a.29.29 0 0 1 .19.06.48.48 0 0 1 .12.21l.37 1.6h1.13V17.5h-10.5v3.22h1.12l.38-1.6a.36.36 0 0 1 .11-.21.27.27 0 0 1 .2-.06h2.16v7.86a.35.35 0 0 1-.06.23z"/></g><g><path fill="#262121" d="M171.671 27.181a2.46 2.46 0 0 1-1.3-.33 2.36 2.36 0 0 1-.89-.91 4.17 4.17 0 0 1-.52-1.43 9.22 9.22 0 0 1-.18-1.9 8.68 8.68 0 0 1 .14-1.58 4 4 0 0 1 .48-1.29 2.44 2.44 0 0 1 .83-.86 2.19 2.19 0 0 1 1.22-.31 2.53 2.53 0 0 1 1.28.31c.378.214.692.525.91.9.267.433.45.91.54 1.41.114.63.167 1.27.16 1.91a7.76 7.76 0 0 1-.16 1.67 4.34 4.34 0 0 1-.49 1.29 2.56 2.56 0 0 1-.84.83 2.37 2.37 0 0 1-1.18.29zm4.14-.44a5.48 5.48 0 0 0 1.19-2.47 6.92 6.92 0 0 0 .15-1.42 7.29 7.29 0 0 0-.33-2.23 4.78 4.78 0 0 0-1-1.77 4.42 4.42 0 0 0-1.82-1.17 6.47 6.47 0 0 0-2.45-.43 6.09 6.09 0 0 0-2.33.41 5 5 0 0 0-1.76 1.16 5.16 5.16 0 0 0-1.09 1.77 6.27 6.27 0 0 0-.37 2.26 7 7 0 0 0 .36 2.36 4.65 4.65 0 0 0 1.1 1.79 4.37 4.37 0 0 0 1.72 1.11 6.79 6.79 0 0 0 2.38.39 6.51 6.51 0 0 0 1.77-.21 5.26 5.26 0 0 0 1.4-.64 4.29 4.29 0 0 0 1.08-.91z"/></g><g><path fill="#262121" d="M191.5 26.56a.35.35 0 0 1-.12.21.27.27 0 0 1-.19.08h-4.25v-3.54h1.95a.28.28 0 0 1 .22.08.32.32 0 0 1 .09.21l.38 1.14h.93v-4.17h-.93l-.38 1.16a.87.87 0 0 1-.09.21.28.28 0 0 1-.22.07h-1.95v-3.13h3.7a.33.33 0 0 1 .21.07.41.41 0 0 1 .11.21l.36 1.43h1.14V17.5h-9.52v.68l1.19.49a.49.49 0 0 1 .18.11.27.27 0 0 1 .08.21v7.72a.33.33 0 0 1-.07.24.69.69 0 0 1-.19.12l-1.19.48v.69H193V25h-1.12z"/></g><g><path fill="#262121" d="M216.42 26.94l-.21.13-1.19.48v.69h5.48v-.69l-1.19-.48a1 1 0 0 1-.19-.13.3.3 0 0 1-.08-.23V19a.29.29 0 0 1 .08-.21.93.93 0 0 1 .19-.11l1.19-.49v-.69h-12.22v.68l1.19.49a.67.67 0 0 1 .18.11.29.29 0 0 1 .08.21v7.72a.33.33 0 0 1-.07.24.57.57 0 0 1-.19.12l-1.19.48v.69h5.47v-.69l-1.19-.48-.21-.13a.3.3 0 0 1-.07-.23V18.8h4.2v7.91a.3.3 0 0 1-.06.23z"/></g><g><path fill="#262121" d="M233.26 21.37a1.7 1.7 0 0 1-.1.42 1.86 1.86 0 0 1-.19.46 1.53 1.53 0 0 1-.31.37 1.42 1.42 0 0 1-.46.28 1.64 1.64 0 0 1-.65.11h-.31a2 2 0 0 1-.34 0l-.31-.05-.24-.05v-4h.83a2.7 2.7 0 0 1 1 .18c.248.108.467.273.64.48.166.197.282.43.34.68a3 3 0 0 1 .1.8c.007.107.007.214 0 .32zm.18-3.69a7.08 7.08 0 0 0-1.63-.18h-5.46v.68l1.18.49a.48.48 0 0 1 .2.11.28.28 0 0 1 .06.21v7.72a.3.3 0 0 1-.06.23.86.86 0 0 1-.2.13l-1.18.48v.69h5.53v-.69l-1.25-.48a1 1 0 0 1-.2-.12.35.35 0 0 1-.08-.24v-2.83l.42.21c.16.062.324.116.49.16.159.056.323.093.49.11a1.8 1.8 0 0 0 .44.05 4.06 4.06 0 0 0 1.51-.26 3.44 3.44 0 0 0 1.2-.75 3.19 3.19 0 0 0 .79-1.18 4.3 4.3 0 0 0 .27-1.6 2.72 2.72 0 0 0-.32-1.41 2.53 2.53 0 0 0-.88-.98 3.65 3.65 0 0 0-1.32-.55z"/></g><g><path fill="#262121" d="M244.08 23.6l1.4-3.6h.16l.26 1 1 2.64zm3 4.64H252v-.69l-.81-.35a.62.62 0 0 1-.2-.15.94.94 0 0 1-.13-.24l-3.63-9.48h-2l-.9 1.79-3 7.65a.73.73 0 0 1-.36.39l-.8.39v.69H244v-.69l-1.24-.55.82-2.12h3.85l.88 2.17-1.23.48z"/></g><g><path fill="#262121" d="M264.05 26.482a2.28 2.28 0 0 1-1.48.39h-1.48v-3.53h1.22a4.62 4.62 0 0 1 1.05.1c.248.047.481.154.68.31a1.3 1.3 0 0 1 .39.58c.072.281.109.57.11.86a1.53 1.53 0 0 1-.54 1.29zm-3-7.62h1a2 2 0 0 1 1.4.41 1.8 1.8 0 0 1 .44 1.34 1.36 1.36 0 0 1-.12.61.91.91 0 0 1-.34.48 1.64 1.64 0 0 1-.65.29 4.32 4.32 0 0 1-1 .1h-.74zm5.32 4.45a2.53 2.53 0 0 0-.92-.52 4.64 4.64 0 0 0-1.21-.25v-.08a3.28 3.28 0 0 0 .95-.36 2.6 2.6 0 0 0 .71-.55 2.36 2.36 0 0 0 .46-.75c.1-.3.147-.614.14-.93a2.18 2.18 0 0 0-.16-.88 1.67 1.67 0 0 0-.6-.76 3.14 3.14 0 0 0-1.19-.54 8.23 8.23 0 0 0-1.95-.19h-5.53v.68l1.18.49a.49.49 0 0 1 .18.11.28.28 0 0 1 .09.21v7.72a.33.33 0 0 1-.07.24.62.62 0 0 1-.2.12l-1.18.48v.69h5.76c.368.002.735-.022 1.1-.07a5.69 5.69 0 0 0 1-.19c.32-.08.627-.209.91-.38a2.63 2.63 0 0 0 .72-.57 2.78 2.78 0 0 0 .47-.81 3.38 3.38 0 0 0 .16-1.09 2.33 2.33 0 0 0-.85-1.82z"/></g><g><path fill="#262121" d="M281.73 18.05L277 25.32h-.15l.15-1.18V19a.29.29 0 0 1 .08-.21.55.55 0 0 1 .2-.11l1.18-.49v-.69h-5.38v.68l1.19.49a.67.67 0 0 1 .18.11.33.33 0 0 1 .08.21v7.72a.33.33 0 0 1-.07.24.69.69 0 0 1-.19.12l-1.19.48v.69H277v-.54l4.72-7.27h.13l-.13 1.17v5.14a.27.27 0 0 1-.08.21 2.2 2.2 0 0 1-.19.12l-1.19.48v.69h5.39v-.69l-1.19-.48a.63.63 0 0 1-.18-.12c-.07-.05-.08-.11-.08-.21V19a.34.34 0 0 1 .06-.25.55.55 0 0 1 .2-.11l1.19-.49v-.65h-3.91z"/></g><g><path fill="#262121" d="M293.46 18.18l1.21.49a.54.54 0 0 1 .19.16.73.73 0 0 1 .07.39c0 .47 0 1-.09 1.48a14.681 14.681 0 0 1-.26 1.57c-.11.5-.24 1-.39 1.46a8.85 8.85 0 0 1-.48 1.25 3.47 3.47 0 0 1-.56.85.82.82 0 0 1-.6.32h-.9a2.489 2.489 0 0 0-.37 0h-.5v2.22c.123.007.247.007.37 0h1.12a1.89 1.89 0 0 0 1.08-.36 3.93 3.93 0 0 0 1-1 8.09 8.09 0 0 0 .85-1.53 12.11 12.11 0 0 0 .67-1.93c.197-.75.347-1.511.45-2.28.119-.825.185-1.657.2-2.49h2.67v7.91a.31.31 0 0 1-.09.23 1.22 1.22 0 0 1-.19.13l-1.19.48v.69h5.49v-.69l-1.21-.46a1.16 1.16 0 0 1-.2-.13.27.27 0 0 1-.08-.23V19a.25.25 0 0 1 .08-.21.55.55 0 0 1 .2-.11l1.19-.49v-.69h-9.72z"/></g><g><path fill="#262121" d="M316.581 26.061a2.56 2.56 0 0 1-.84.83 2.36 2.36 0 0 1-1.17.29 2.47 2.47 0 0 1-1.31-.33 2.43 2.43 0 0 1-.89-.91 4.17 4.17 0 0 1-.52-1.43 9.22 9.22 0 0 1-.18-1.9 7.85 7.85 0 0 1 .15-1.58 4 4 0 0 1 .47-1.29 2.53 2.53 0 0 1 .83-.86 2.19 2.19 0 0 1 1.22-.31 2.42 2.42 0 0 1 2.19 1.21c.267.433.45.91.54 1.41.119.63.172 1.27.16 1.91a7.18 7.18 0 0 1-.16 1.67 4.34 4.34 0 0 1-.49 1.29zm2.09-7.21a4.42 4.42 0 0 0-1.73-1.17 6.47 6.47 0 0 0-2.45-.43 6.09 6.09 0 0 0-2.33.41 5 5 0 0 0-1.76 1.16 5.16 5.16 0 0 0-1.09 1.77 6.27 6.27 0 0 0-.37 2.26 7 7 0 0 0 .36 2.36c.211.669.57 1.28 1.05 1.79a4.34 4.34 0 0 0 1.73 1.11 6.73 6.73 0 0 0 2.37.39 6.51 6.51 0 0 0 1.77-.21 5.12 5.12 0 0 0 1.4-.62 4.29 4.29 0 0 0 1.08-.91c.299-.349.544-.74.73-1.16a4.67 4.67 0 0 0 .42-1.31 6.92 6.92 0 0 0 .15-1.42 7.29 7.29 0 0 0-.33-2.25 4.65 4.65 0 0 0-1-1.77z"/></g><g><path fill="#262121" d="M91.94 43.85a1.5 1.5 0 0 1-.48.49 1.34 1.34 0 0 1-.68.17 1.49 1.49 0 0 1-.75-.19 1.68 1.68 0 0 1-.53-.53 2.77 2.77 0 0 1-.29-.84 5.52 5.52 0 0 1-.11-1.12 4.42 4.42 0 0 1 .09-.92 2.3 2.3 0 0 1 .28-.75 1.44 1.44 0 0 1 .47-.51 1.31 1.31 0 0 1 .71-.18 1.37 1.37 0 0 1 1.26.71c.158.25.266.529.32.82.063.37.093.745.09 1.12a4.88 4.88 0 0 1-.09.98 2.55 2.55 0 0 1-.29.75zm.22-4.9a4.09 4.09 0 0 0-2.67-.05 2.81 2.81 0 0 0-1 .57c-.27.25-.49.548-.65.88a3.37 3.37 0 0 0-.32 1.13h-1.18v-1.76a.14.14 0 0 1 0-.13l.11-.06.7-.29v-.4H84v.4l.7.29.1.06a.17.17 0 0 1 0 .13v4.51a.21.21 0 0 1 0 .15l-.11.06-.7.29v.4h3.2v-.4l-.7-.29-.12-.07a.18.18 0 0 1 0-.14v-2h1.21c.022.434.11.862.26 1.27.131.38.35.722.64 1 .278.28.622.486 1 .6.42.146.864.217 1.31.21a4 4 0 0 0 1-.12 3.16 3.16 0 0 0 .81-.36 2.44 2.44 0 0 0 .61-.54c.17-.206.314-.43.43-.67.116-.249.2-.51.25-.78a4.56 4.56 0 0 0 .08-.82 4.23 4.23 0 0 0-.19-1.31 2.74 2.74 0 0 0-.62-1.08 2.61 2.61 0 0 0-1-.68z"/></g><g><path fill="#262121" d="M101.12 41.11a1.15 1.15 0 0 1-.17.51.63.63 0 0 1-.18.22.61.61 0 0 1-.27.16.89.89 0 0 1-.38.07h-.7v-2.43h.48a1.5 1.5 0 0 1 .6.11 1 1 0 0 1 .38.27c.092.12.16.255.2.4a2.5 2.5 0 0 1 0 .47c.011.073.018.146.02.22zm.11-2.16a4.19 4.19 0 0 0-.95-.11h-3.2v.4l.69.29.12.06v4.78l-.12.07-.69.29v.4h3.23v-.4l-.73-.29-.11-.06a.23.23 0 0 1 0-.15v-1.65l.25.12c.09.042.183.072.28.09.094.033.191.056.29.07h.26a2.5 2.5 0 0 0 .88-.15 2.13 2.13 0 0 0 .71-.44 1.84 1.84 0 0 0 .45-.7 2.3 2.3 0 0 0 .16-.93 1.57 1.57 0 0 0-.19-.83 1.41 1.41 0 0 0-.56-.54 2.13 2.13 0 0 0-.77-.32z"/></g><g><path fill="#262121" d="M110.79 39.17L108 43.42h-.09l.09-.69v-3a.22.22 0 0 1 0-.13l.12-.06.69-.29v-.4h-3.15v.4l.7.29.1.06a.17.17 0 0 1 0 .13v4.51a.21.21 0 0 1 0 .15l-.11.06-.7.29v.4H108v-.32l2.76-4.25h.08l-.08.68v3a.17.17 0 0 1 0 .13l-.11.06-.7.29v.4h3.15v-.4l-.69-.29-.11-.06a.17.17 0 0 1 0-.13v-4.51a.21.21 0 0 1 0-.15l.11-.06.69-.29v-.4h-2.28z"/></g><g><path fill="#262121" d="M120.51 44.37h-3a5.17 5.17 0 0 0 .6-1 7.4 7.4 0 0 0 .43-1.17c.113-.411.203-.829.27-1.25.06-.44.1-.89.13-1.34h1.56zm1.49-4.63a.21.21 0 0 1 0-.15l.12-.06.68-.29v-.4h-5.69v.4l.7.29h.06a.21.21 0 0 1 0 .06v.09c-.003.24-.02.481-.05.72 0 .26-.07.53-.12.81-.05.28-.13.56-.21.85a7.59 7.59 0 0 1-.3.84 6.82 6.82 0 0 1-.37.77 3.92 3.92 0 0 1-.47.64h-.71v2.38h.75l.28-1.49a.23.23 0 0 1 0-.1.17.17 0 0 1 .1 0h5a.14.14 0 0 1 .09 0 .17.17 0 0 1 .06.1l.28 1.49h.75v-2.32H122z"/></g><g><path fill="#262121" d="M131.33 39.17l-2.77 4.25h-.08l.08-.69v-3a.17.17 0 0 1 .05-.13l.12-.06.69-.29v-.4h-3.15v.4l.69.29.11.06a.17.17 0 0 1 .05.13v4.51a.21.21 0 0 1 0 .15l-.12.06-.69.29v.4h2.28v-.32l2.77-4.25h.07l-.07.68v3a.17.17 0 0 1 0 .13l-.12.06-.69.29v.4h3.15v-.4l-.69-.29-.11-.06a.14.14 0 0 1-.05-.13v-4.51a.21.21 0 0 1 0-.15l.12-.06.69-.29v-.4h-2.28z"/></g><g><path fill="#262121" d="M140.13 39.24l.64.29a.35.35 0 0 1 .12.07v2.21l-.27.07-.29.06h-.59a1.11 1.11 0 0 1-.51-.09.89.89 0 0 1-.35-.28.88.88 0 0 1-.19-.4 2.1 2.1 0 0 1-.06-.51v-1a.17.17 0 0 1 .05-.13l.11-.06.64-.29v-.4h-3.15v.4l.69.29.12.06a.22.22 0 0 1 0 .13v1.65a1.38 1.38 0 0 0 .15.65c.086.2.225.372.4.5.188.148.407.254.64.31a3 3 0 0 0 .87.12h.42c.148-.026.295-.06.44-.1a2 2 0 0 0 .43-.15 2.63 2.63 0 0 0 .41-.21V44.34l-.13.07-.7.29v.4h3.22v-.4l-.69-.29-.12-.07a.18.18 0 0 1 0-.14v-4.48a.14.14 0 0 1 0-.12l.12-.07.69-.29v-.4h-3.16z"/></g><g><path fill="#262121" d="M151.42 44.15a.16.16 0 0 1-.06.12.18.18 0 0 1-.12 0h-2.48v-2.03H150.02a.23.23 0 0 1 .06.12l.22.67h.54v-2.39h-.54l-.22.68a.44.44 0 0 1-.06.12H148.76v-1.79h2.16a.16.16 0 0 1 .12 0 .35.35 0 0 1 .07.12l.21.84h.68v-1.77h-5.57v.4l.69.29a.39.39 0 0 1 .11.06.2.2 0 0 1 0 .13v4.51a.28.28 0 0 1 0 .15l-.12.06-.69.29v.4h5.89v-1.91h-.66z"/></g><g><path fill="#262121" d="M160.491 43.87a2.55 2.55 0 0 1-.37.19c-.14.07-.287.12-.44.15a1.79 1.79 0 0 1-.53.07 2.37 2.37 0 0 1-.87-.16 1.76 1.76 0 0 1-.66-.48 2.15 2.15 0 0 1-.42-.78 3.46 3.46 0 0 1-.15-1.07 3.7 3.7 0 0 1 .13-1 2.18 2.18 0 0 1 .38-.73 1.7 1.7 0 0 1 .6-.43c.25-.093.514-.14.78-.14.18-.003.36.028.53.09.155.054.306.121.45.2a.59.59 0 0 1 .11.08c.05 0 .08.08.08.11l.22.83h.67V39l-.47-.09-.6-.11-.61-.08h-.58a4.28 4.28 0 0 0-.9.1 3.5 3.5 0 0 0-.8.31 3.09 3.09 0 0 0-.66.48 2.89 2.89 0 0 0-.5.65 3.71 3.71 0 0 0-.32.8 4.11 4.11 0 0 0-.1.94 3.7 3.7 0 0 0 .23 1.38c.146.377.37.718.66 1a3 3 0 0 0 1 .65 3.81 3.81 0 0 0 2.06.14c.23-.07.45-.15.66-.23.21-.08.39-.2.57-.31.18-.11.32-.22.45-.32v-.64h-.36z"/></g><g><path fill="#262121" d="M170.26 44.408a.66.66 0 0 1-.14-.15l-1.85-2.75a2 2 0 0 0 .25-.32c.073-.1.136-.208.19-.32.065-.097.125-.197.18-.3a1.46 1.46 0 0 1 .19-.26.92.92 0 0 1 .22-.18.57.57 0 0 1 .29-.07h.95v-1.25H169.72a1.2 1.2 0 0 0-.28 0 .67.67 0 0 0-.25.08c-.08 0-.14.09-.22.14a1.29 1.29 0 0 0-.19.21c-.092.11-.176.227-.25.35l-.2.36-.18.38c-.06.13-.12.26-.19.38-.07.134-.146.265-.23.39-.087.13-.184.254-.29.37a.44.44 0 0 1-.15.12.75.75 0 0 1-.18.08.53.53 0 0 1-.19.06h-.39v-2a.17.17 0 0 1 .05-.13l.11-.06.7-.29v-.4h-3.2v.4l.69.29.11.06a.17.17 0 0 1 0 .13v4.51a.18.18 0 0 1 0 .14l-.12.07-.69.29v.4h3.2v-.4l-.7-.29-.11-.06a.21.21 0 0 1-.05-.15v-1.94l.62.09 1.47 2.3c.046.082.1.159.16.23a.83.83 0 0 0 .17.16.78.78 0 0 0 .21.09c.1.011.2.011.3 0l1.59-.06v-.38l-.64-.23a.48.48 0 0 1-.14-.09z"/></g><g><path fill="#262121" d="M175.56 42.43l.8-2.13h.1l.15.59.6 1.54zm3.93 1.86l-2.13-5.54h-1.16l-.52 1-1.78 4.47a.43.43 0 0 1-.21.23l-.47.23v.4h2.27v-.4l-.74-.32.48-1.23h2.26l.51 1.26-.72.29v.4h2.87v-.4l-.47-.21a.27.27 0 0 1-.12-.04.61.61 0 0 1-.07-.14z"/></g><g><path fill="#262121" d="M186.74 39.641v2.17h-.8a1.34 1.34 0 0 1-.48-.08 1 1 0 0 1-.33-.24.83.83 0 0 1-.19-.34 1.12 1.12 0 0 1-.07-.4 1.1 1.1 0 0 1 .28-.83c.236-.2.541-.3.85-.28zm-2.55-.5a2.07 2.07 0 0 0-.43.31 1.56 1.56 0 0 0-.26.39 1.77 1.77 0 0 0-.15.42 3 3 0 0 0 0 .41c-.008.24.036.48.13.7.082.176.19.338.32.48a2 2 0 0 0 .42.32l.41.17-1.25 1.89a.73.73 0 0 1-.14.16.55.55 0 0 1-.17.11l-.69.23v.4h1.81a.56.56 0 0 0 .22-.09.35.35 0 0 0 .17-.17l.2-.28 1.3-2h.7v1.68a.18.18 0 0 1 0 .14l-.13.07-.64.29v.4h3.16v-.4l-.69-.29-.12-.07a.18.18 0 0 1-.05-.14v-4.55a.17.17 0 0 1 .05-.13l.12-.06.69-.29v-.4h-3.42a4.16 4.16 0 0 0-.93.08 3.09 3.09 0 0 0-.63.22z"/></g><g><path fill="#262121" d="M203.43 44.408a.93.93 0 0 1-.13-.15l-1.86-2.75c.1-.095.188-.202.26-.32.122-.207.246-.414.37-.62a1.46 1.46 0 0 1 .19-.26.92.92 0 0 1 .22-.18.57.57 0 0 1 .29-.07h.95v-1.25H202.9a1.2 1.2 0 0 0-.28 0 .61.61 0 0 0-.25.08c-.08 0-.14.09-.22.14a1.29 1.29 0 0 0-.19.21c-.092.11-.176.227-.25.35-.07.11-.13.23-.2.36l-.18.38c-.06.13-.12.26-.19.38-.07.134-.146.265-.23.39-.087.13-.184.254-.29.37a.44.44 0 0 1-.15.12.75.75 0 0 1-.18.08.53.53 0 0 1-.19.06h-.39v-2a.17.17 0 0 1 0-.13l.11-.06.7-.29v-.4h-3.2v.4l.69.29.11.06a.17.17 0 0 1 .05.13v4.51a.18.18 0 0 1 0 .14l-.12.07-.69.29v.4h3.2v-.4l-.7-.29-.11-.06a.21.21 0 0 1 0-.15v-1.94l.62.09 1.47 2.3c.046.082.1.159.16.23a.83.83 0 0 0 .17.16.78.78 0 0 0 .21.09c.096.01.194.01.29 0l1.59-.06v-.38l-.63-.23a.66.66 0 0 1-.2-.09z"/></g><g><path fill="#262121" d="M211.29 43.85a1.34 1.34 0 0 1-1.18.66 1.5 1.5 0 0 1-.76-.19 1.58 1.58 0 0 1-.53-.53 2.77 2.77 0 0 1-.3-.84 5.52 5.52 0 0 1-.11-1.12 4.42 4.42 0 0 1 .09-.92 2.3 2.3 0 0 1 .28-.75 1.47 1.47 0 0 1 .48-.51 1.33 1.33 0 0 1 .72-.18c.262-.005.52.057.75.18.22.13.402.312.53.53.154.253.262.53.32.82.063.37.093.745.09 1.12a4.88 4.88 0 0 1-.09.98 2.86 2.86 0 0 1-.29.75zm.21-4.9a3.9 3.9 0 0 0-1.44-.25 3.66 3.66 0 0 0-1.36.24 3 3 0 0 0-1 .67 3.24 3.24 0 0 0-.64 1 3.75 3.75 0 0 0-.26 1.39 4.25 4.25 0 0 0 .21 1.38c.139.374.354.714.63 1 .278.293.62.516 1 .65a4 4 0 0 0 1.39.23c.337.001.673-.04 1-.12a3.23 3.23 0 0 0 .82-.36 2.73 2.73 0 0 0 .63-.54c.17-.205.314-.43.43-.67a2.84 2.84 0 0 0 .24-.78c.06-.269.09-.544.09-.82a4.55 4.55 0 0 0-.19-1.31 2.76 2.76 0 0 0-.55-1.03 2.69 2.69 0 0 0-1-.68z"/></g><g><path fill="#262121" d="M220.84 43.15h-.09l-.19-.72-1.23-3.59h-2.92v.4l.69.29.12.06a.17.17 0 0 1 0 .13v4.48a.17.17 0 0 1 0 .14.24.24 0 0 1-.11.06l-.69.33v.4H219v-.4l-.7-.33a.27.27 0 0 1-.1-.06.17.17 0 0 1-.05-.14v-4.26h.11l.18.63 1.56 4.56h.89l.4-1 1.25-3.61.2-.63h.11v4.29a.18.18 0 0 1-.05.14l-.13.07-.68.29v.4h3.18v-.4l-.7-.29-.11-.06a.21.21 0 0 1-.05-.15v-4.46a.15.15 0 0 1 .06-.13l.1-.06.7-.29v-.4h-2.89z"/></g><g><path fill="#262121" d="M228.32 39.24l.7.29.1.06a.17.17 0 0 1 0 .13v4.51a.21.21 0 0 1 0 .15l-.11.06-.7.29v.4h3.2v-.4l-.69-.29-.12-.07a.18.18 0 0 1 0-.14V39.6h2.45v4.63a.24.24 0 0 1 0 .14l-.13.07-.69.29v.4h3.21v-.4l-.7-.29a.52.52 0 0 1-.11-.07.18.18 0 0 1 0-.14v-4.51a.17.17 0 0 1 0-.13l.11-.06.7-.29v-.4h-7.16z"/></g><g><path fill="#262121" d="M240.44 42.43l.81-2.13h.1l.15.59.6 1.54zm3.92 1.86l-2.12-5.54h-1.16l-.53 1-1.78 4.47a.37.37 0 0 1-.21.23l-.46.23v.4h2.26v-.4l-.73-.32.48-1.23h2.25l.52 1.26-.73.29v.4H245v-.4l-.48-.21a.31.31 0 0 1-.08-.04.39.39 0 0 1-.08-.14z"/></g><g><path fill="#262121" d="M251.77 39.24l.7.29.11.06a.14.14 0 0 1 0 .13v1.76H250v-1.76a.14.14 0 0 1 0-.13l.11-.06.7-.29v-.4h-3.2v.4l.69.29.11.06a.22.22 0 0 1 0 .13v4.51a.28.28 0 0 1 0 .15l-.12.06-.69.29v.4h3.2v-.4l-.7-.29-.12-.07a.18.18 0 0 1 0-.14v-2h2.58v2.14l-.11.07-.7.29v.4H255v-.4l-.69-.29-.12-.07a.18.18 0 0 1 0-.14v-4.51a.17.17 0 0 1 0-.13l.12-.06.69-.29v-.4h-3.21z"/></g><g><path fill="#262121" d="M263.17 39.17l-2.77 4.25h-.08l.08-.69v-3a.17.17 0 0 1 .05-.13l.12-.06.69-.29v-.4h-3.15v.4l.69.29.11.06a.17.17 0 0 1 0 .13v4.51a.21.21 0 0 1 0 .15l-.12.06-.69.29v.4h2.29v-.32l2.76-4.25h.07l-.07.68v3a.17.17 0 0 1-.05.13l-.12.06-.69.29v.4h3.15v-.4l-.69-.29-.11-.06a.14.14 0 0 1 0-.13v-4.51a.21.21 0 0 1 0-.15l.12-.06.69-.29v-.4h-2.28z"/></g><g><path fill="#262121" d="M272.49 39.64v2.17h-.8a1.42 1.42 0 0 1-.48-.08 1.17 1.17 0 0 1-.33-.24 1 1 0 0 1-.19-.34 1.12 1.12 0 0 1-.07-.4 1.1 1.1 0 0 1 .29-.83 1.17 1.17 0 0 1 .85-.28zm-2.54-.5a1.83 1.83 0 0 0-.43.31 1.61 1.61 0 0 0-.27.39 2.3 2.3 0 0 0-.14.42 1.82 1.82 0 0 0 .08 1.11c.085.176.196.338.33.48a1.8 1.8 0 0 0 .42.32c.133.067.27.123.41.17l-1.26 1.89a1.12 1.12 0 0 1-.13.16.69.69 0 0 1-.17.11l-.69.23v.4h1.81a.73.73 0 0 0 .22-.09.4.4 0 0 0 .17-.17l.19-.28 1.3-2h.7v1.68a.18.18 0 0 1 0 .14l-.12.07-.65.29v.4h3.16v-.4l-.68-.29-.13-.07a.18.18 0 0 1 0-.14v-4.55a.17.17 0 0 1 0-.13l.13-.06.68-.29v-.4h-3.42a4.06 4.06 0 0 0-.88.08 3.09 3.09 0 0 0-.63.22z"/></g></g></g></svg>